<svg width="40" height="40" viewBox="0 0 40 40" fill="none" xmlns="http://www.w3.org/2000/svg">
<rect width="40" height="40" fill="#E8B7BA"/>
<path d="M30.0082 27.94C29.2085 33.5633 23.7419 37.1761 17.707 35.8827C11.672 34.5893 7.52589 28.9162 8.32553 23.2928C9.12517 17.6695 14.5918 14.0567 20.6267 15.3501C26.6617 16.6436 30.8078 22.3166 30.0082 27.94Z" fill="#E8B7BA" stroke="#EEDAD1" stroke-width="1.6313"/>
<path d="M29.0511 22.3706C27.8456 25.7234 22.488 26.0677 17.0845 23.1395C11.681 20.2114 10.2767 16.8617 11.4822 13.5089C13.4788 10.9043 18.7447 13.0327 22.8901 14.737C28.2935 17.6652 30.2565 19.0178 29.0511 22.3706Z" fill="#E8B7BA"/>
<path d="M20.0051 13.5732C20.0051 16.0933 18.2435 17.9777 16.2531 17.9777C14.2627 17.9777 12.5011 16.0933 12.5011 13.5732C12.5011 11.053 14.2627 9.16863 16.2531 9.16863C18.2435 9.16863 20.0051 11.053 20.0051 13.5732Z" fill="#E8B7BA" stroke="#F2F2F2" stroke-width="1.30504"/>
<path d="M23.523 28.7195C22.839 29.7028 21.6319 30.257 20.1413 30.2799C18.6519 30.3027 16.9344 29.7877 15.3648 28.6958C13.7953 27.604 12.715 26.173 12.2183 24.7686C11.7213 23.3631 11.8211 22.0386 12.5051 21.0553C13.1891 20.072 14.3962 19.5177 15.8869 19.4948C17.3762 19.472 19.0937 19.9871 20.6633 21.0789C22.2329 22.1707 23.3131 23.6018 23.8098 25.0061C24.3068 26.4116 24.207 27.7362 23.523 28.7195Z" stroke="#F2F2F2" stroke-width="1.30235"/>
<rect x="15.5039" y="21.6111" width="5.25024" height="12.9568" transform="rotate(-48.434 15.5039 21.6111)" fill="#E8B7BA"/>
<path d="M20.4719 24.503C15.6539 26.0466 14.7756 22.5317 15.929 21.7393C16.9447 21.0414 21.3072 24.5217 23.4573 27.1705C23.9382 27.7629 23.826 28.5307 23.2708 29.0434L23.0652 29.2333" stroke="#F2F2F2" stroke-width="1.30504"/>
<path d="M28.4899 18.7254C27.4562 21.0238 25.0767 22.0197 23.2614 21.2033C21.4461 20.3868 20.6126 17.9457 21.6463 15.6473C22.68 13.349 25.0596 12.353 26.8748 13.1694C28.6901 13.9859 29.5237 16.4271 28.4899 18.7254Z" fill="#E8B7BA" stroke="#F2F2F2" stroke-width="1.30504"/>
<path d="M25.3753 6.92892C25.3753 7.13763 25.2931 7.32877 25.1165 7.53026C24.9585 7.71055 24.7315 7.89354 24.4685 8.10544C24.3787 8.17783 24.2768 8.2599 24.1712 8.34731C24.1435 8.37021 24.1081 8.38292 24.0712 8.38313H24.0703C24.0331 8.38313 23.9973 8.3704 23.9694 8.34727C23.864 8.26008 23.7623 8.17811 23.6726 8.10581L23.6722 8.10549C23.4092 7.89358 23.1821 7.71055 23.0241 7.53026C22.8475 7.32877 22.7653 7.13763 22.7653 6.92892C22.7653 6.72612 22.8388 6.53899 22.9723 6.40202C23.1075 6.26342 23.2928 6.18713 23.4944 6.18713C23.6451 6.18713 23.783 6.23214 23.9045 6.32097C23.9658 6.36583 24.0214 6.42067 24.0703 6.48471L24.0712 6.48357C24.1199 6.42001 24.1752 6.36555 24.2361 6.32097C24.3576 6.23214 24.4956 6.18713 24.6462 6.18713C24.8478 6.18713 25.0332 6.26342 25.1683 6.40202C25.3018 6.53899 25.3753 6.72606 25.3753 6.92892Z" fill="#D95B5B"/>
<path d="M27.3328 3.34952C27.3328 3.50606 27.2711 3.64941 27.1387 3.80052C27.0202 3.93575 26.8499 4.07299 26.6527 4.23191C26.5853 4.2862 26.5089 4.34775 26.4297 4.41332C26.4089 4.43049 26.3823 4.44002 26.3547 4.44018H26.354C26.3262 4.44018 26.2993 4.43063 26.2784 4.41329C26.1993 4.34789 26.123 4.28641 26.0558 4.23219L26.0554 4.23195C25.8582 4.07302 25.6879 3.93575 25.5694 3.80052C25.4369 3.64941 25.3752 3.50606 25.3752 3.34952C25.3752 3.19742 25.4304 3.05707 25.5305 2.95435C25.6319 2.8504 25.7709 2.79318 25.9221 2.79318C26.0351 2.79318 26.1386 2.82694 26.2297 2.89356C26.2757 2.9272 26.3173 2.96833 26.354 3.01637L26.3547 3.01551C26.3913 2.96784 26.4327 2.92699 26.4784 2.89356C26.5695 2.82694 26.673 2.79318 26.7859 2.79318C26.9372 2.79318 27.0762 2.8504 27.1775 2.95435C27.2777 3.05707 27.3328 3.19738 27.3328 3.34952Z" fill="#D95B5B"/>
</svg>
